<svg xmlns="http://www.w3.org/2000/svg" xmlns:xlink="http://www.w3.org/1999/xlink" width="65" height="65" viewBox="0 0 65 65"><defs><filter id="b" x="46.564" y="-8422.716" width="11.474" height="32766" filterUnits="userSpaceOnUse" color-interpolation-filters="sRGB"><feFlood flood-color="#fff" result="bg"/><feBlend in="SourceGraphic" in2="bg"/></filter><mask id="a" x="46.564" y="-8422.716" width="11.474" height="32766" maskUnits="userSpaceOnUse"><g filter="url(#b)"/></mask><linearGradient id="c" x1="-451.966" y1="296.851" x2="-448.737" y2="296.851" gradientTransform="translate(-242.923 -420.401) rotate(-89.794)" gradientUnits="userSpaceOnUse"><stop offset="0" stop-color="#fff"/><stop offset="1"/></linearGradient><filter id="e" x="19.755" y="-8422.716" width="12.762" height="32766" filterUnits="userSpaceOnUse" color-interpolation-filters="sRGB"><feFlood flood-color="#fff" result="bg"/><feBlend in="SourceGraphic" in2="bg"/></filter><mask id="d" x="19.755" y="-8422.716" width="12.762" height="32766" maskUnits="userSpaceOnUse"><g filter="url(#e)"/></mask><linearGradient id="f" x1="-448.715" y1="270.674" x2="-440.436" y2="270.674" xlink:href="#c"/><linearGradient id="g" x1="-463.178" y1="268.626" x2="-460.075" y2="268.626" gradientTransform="translate(-242.923 -420.401) rotate(-89.794)" gradientUnits="userSpaceOnUse"><stop offset="0" stop-color="#d7d9dd"/><stop offset="0.282" stop-color="#fefdfd"/><stop offset="0.353" stop-color="#f7f6f7"/><stop offset="1" stop-color="#b6b9c5"/></linearGradient><linearGradient id="h" x1="-463.139" y1="266.328" x2="-460.114" y2="266.328" gradientTransform="translate(-242.923 -420.401) rotate(-89.794)" gradientUnits="userSpaceOnUse"><stop offset="0" stop-color="#909092"/><stop offset="0.282" stop-color="#fefdfd"/><stop offset="0.75" stop-color="#7b7b7c"/><stop offset="1" stop-color="#3a3a3b"/></linearGradient><linearGradient id="i" x1="-443.686" y1="268.626" x2="-440.583" y2="268.626" xlink:href="#g"/><linearGradient id="j" x1="-443.647" y1="266.328" x2="-440.622" y2="266.328" xlink:href="#h"/><linearGradient id="k" x1="-471.246" y1="273.142" x2="-468.143" y2="273.142" xlink:href="#g"/><linearGradient id="l" x1="-471.207" y1="270.844" x2="-468.182" y2="270.844" xlink:href="#h"/><linearGradient id="m" x1="-435.619" y1="273.143" x2="-432.515" y2="273.143" xlink:href="#g"/><linearGradient id="n" x1="-435.579" y1="270.845" x2="-432.555" y2="270.845" xlink:href="#h"/><linearGradient id="o" x1="-455.051" y1="276.059" x2="-448.711" y2="276.059" xlink:href="#g"/><linearGradient id="p" x1="-452.203" y1="256.884" x2="-451.557" y2="256.884" gradientTransform="translate(464.287 -224.361) rotate(0.015)" gradientUnits="userSpaceOnUse"><stop offset="0" stop-color="#c4c4c4"/><stop offset="0.282" stop-color="#fefdfd"/><stop offset="0.378" stop-color="#f4f3f3"/><stop offset="1" stop-color="#b3b3b3"/></linearGradient><linearGradient id="q" x1="-452.204" y1="263.619" x2="-451.558" y2="263.619" gradientTransform="translate(470.995 -231.122) rotate(0.009)" xlink:href="#p"/><linearGradient id="r" x1="-452.204" y1="270.354" x2="-451.558" y2="270.354" gradientTransform="translate(477.761 -237.783) rotate(0.015)" xlink:href="#p"/><linearGradient id="s" x1="-452.204" y1="277.089" x2="-451.558" y2="277.089" gradientTransform="translate(484.498 -244.493) rotate(0.015)" xlink:href="#p"/><linearGradient id="t" x1="-452.204" y1="283.824" x2="-451.558" y2="283.824" gradientTransform="translate(-242.923 -420.401) rotate(-89.794)" xlink:href="#p"/><filter id="v" x="46.564" y="29.403" width="11.474" height="3.249" filterUnits="userSpaceOnUse" color-interpolation-filters="sRGB"><feFlood flood-color="#fff" result="bg"/><feBlend in="SourceGraphic" in2="bg"/></filter><mask id="u" x="46.564" y="29.403" width="11.474" height="3.249" maskUnits="userSpaceOnUse"><g mask="url(#a)" filter="url(#v)"><path d="M51.965,29.4l4.425.088,1.32.025-.837,2.506,1.166.234-.366.4-11.109-.124,2.559-2.089,1.912.4C51.178,30.615,51.514,30.091,51.965,29.4Z" fill="url(#c)" style="mix-blend-mode:multiply"/></g></mask><linearGradient id="w" x1="-451.966" y1="296.851" x2="-448.737" y2="296.851" gradientTransform="translate(-242.923 -420.401) rotate(-89.794)" gradientUnits="userSpaceOnUse"><stop offset="0"/><stop offset="1"/></linearGradient><linearGradient id="x" x1="-452.282" y1="298.642" x2="-451.48" y2="298.642" xlink:href="#g"/><filter id="z" x="19.755" y="21.011" width="12.762" height="8.3" filterUnits="userSpaceOnUse" color-interpolation-filters="sRGB"><feFlood flood-color="#fff" result="bg"/><feBlend in="SourceGraphic" in2="bg"/></filter><mask id="y" x="19.755" y="21.011" width="12.762" height="8.3" maskUnits="userSpaceOnUse"><g mask="url(#d)" filter="url(#z)"><path d="M26.542,21.011l5.646.02-.293.823-.15.426s-1.23,3.957-.023,6.339c0,0,.3.69.794.692l-12.639-.046a.725.725,0,0,1-.122-.008h.275c.585-.058,2.034-.5,3.646-3.231C24.213,25.118,25.267,23.264,26.542,21.011Z" fill="url(#f)" style="mix-blend-mode:multiply"/></g></mask><linearGradient id="aa" x1="-448.715" y1="270.674" x2="-440.436" y2="270.674" xlink:href="#w"/></defs><g style="isolation:isolate"><path d="M22.012,43.7a1.687,1.687,0,0,0,.376.041c.74,0,2.986-.267,3.648-.924l.029-.614-.024-.615c-.658-.662-2.9-.948-3.642-.95a1.644,1.644,0,0,0-.376.038Z" fill="url(#g)"/><path d="M21.473,41.014l0,1.169,0,1.169a.784.784,0,0,0,.547.345l.011-3.024A.785.785,0,0,0,21.473,41.014Z" fill="url(#h)"/><path d="M22.082,24.205a1.69,1.69,0,0,0,.377.041c.739,0,2.985-.267,3.648-.924l.029-.614-.025-.615c-.658-.662-2.9-.948-3.641-.95a1.647,1.647,0,0,0-.377.038Z" fill="url(#i)"/><path d="M21.544,21.522l0,1.169,0,1.169a.78.78,0,0,0,.546.345l.011-3.024A.785.785,0,0,0,21.544,21.522Z" fill="url(#j)"/><path d="M26.5,51.781a1.63,1.63,0,0,0,.376.041c.74,0,2.986-.266,3.649-.924l.028-.614-.024-.614c-.658-.663-2.9-.949-3.641-.951a1.647,1.647,0,0,0-.377.038Z" fill="url(#k)"/><path d="M25.961,49.1l0,1.169,0,1.169a.784.784,0,0,0,.547.345l.011-3.024A.781.781,0,0,0,25.961,49.1Z" fill="url(#l)"/><path d="M26.628,16.153a1.63,1.63,0,0,0,.376.041c.74,0,2.986-.266,3.648-.924l.029-.614-.024-.614c-.658-.663-2.9-.948-3.642-.951a1.644,1.644,0,0,0-.376.038Z" fill="url(#m)"/><path d="M26.09,13.471l0,1.168,0,1.169a.784.784,0,0,0,.547.345l.011-3.024A.78.78,0,0,0,26.09,13.471Z" fill="url(#n)"/><path d="M19.732,35.6s1.823-.315,3.9,3.258,11.98,21.623,11.98,21.623,1.853,2.251,3.332,2.125c0,0,.506-.035.358-.243s-.594-.24-1.488-2.274-2.677-7.448-2.677-7.448l-3.463-9.977s-1.2-3.966.023-6.338c0,0,.313-.7.808-.688Z" fill="#e5e8ec"/><path d="M23.847,35.771l5.334.02c.049.356.193,1.366.392,2.522a28.1,28.1,0,0,0,.946,4.167c.654,1.839,5.822,16.312,6.513,18.248l-.522,0L23.847,35.771m-.259-.159L36.412,60.884l.845,0s-5.883-16.476-6.589-18.46a49.624,49.624,0,0,1-1.349-6.794l-5.731-.021Z" fill="#b3b3b3"/><path d="M37.328,60.851l-.141.072c-3.023-5.916-10.325-25.08-10.4-25.273l.148-.056C27.011,35.787,34.309,54.943,37.328,60.851Z" fill="#b3b3b3"/><rect x="35.31" y="55.293" width="0.726" height="0.159" transform="translate(-18.597 18.044) rotate(-22.687)" fill="#b3b3b3"/><rect x="33.364" y="49.838" width="0.803" height="0.158" transform="translate(-18.168 19.343) rotate(-25.438)" fill="#b3b3b3"/><rect x="30.967" y="43.119" width="0.864" height="0.158" transform="translate(-9.385 8.721) rotate(-13.779)" fill="#b3b3b3"/><path d="M20.029,29.258a1.507,1.507,0,0,1-.152.007.725.725,0,0,1-.122-.008Z" fill="#e5e8ec"/><path d="M39.159,2.391s.505.038.355.245-.6.236-1.5,2.263c-.491,1.095-1.246,3.17-1.84,4.849-.506,1.434-.892,2.58-.892,2.58l-1.028,2.893-2.064,5.81-.293.823-.15.426s-1.23,3.957-.023,6.339c0,0,.3.69.794.692L29.342,29.3l-2.455-.011-3.275-.013-3.582-.016c.585-.058,2.034-.5,3.646-3.231.537-.909,1.591-2.763,2.866-5.016,3.71-6.561,9.27-16.519,9.27-16.519S37.68,2.254,39.159,2.391Z" fill="#e5e8ec"/><path d="M23.871,29.119,36.714,4.257l.522,0c-.7,1.931-5.977,16.366-6.645,18.2a28.258,28.258,0,0,0-.976,4.16c-.207,1.155-.358,2.163-.41,2.52l-5.334-.02m-.26.158,5.731.021a49.68,49.68,0,0,1,1.4-6.785C31.461,20.535,37.463,4.1,37.463,4.1l-.846,0L23.611,29.277Z" fill="#b3b3b3"/><path d="M37.533,4.138c-3.061,5.886-10.5,24.989-10.573,25.181l-.148-.057c.075-.192,7.515-19.3,10.581-25.2Z" fill="#b3b3b3"/><rect x="35.76" y="9.241" width="0.158" height="0.726" transform="translate(12.948 38.805) rotate(-66.908)" fill="#b3b3b3"/><rect x="33.812" y="14.644" width="0.158" height="0.803" transform="translate(5.554 38.962) rotate(-64.102)" fill="#b3b3b3"/><rect x="31.398" y="21.316" width="0.159" height="0.864" transform="translate(2.66 46.915) rotate(-75.773)" fill="#b3b3b3"/><polygon points="36.904 54.321 35.543 53.962 35.54 54.67 36.904 54.321" fill="#d5d5d5"/><polygon points="37.062 10.665 35.701 10.306 35.698 11.014 37.062 10.665" fill="#d5d5d5"/><polygon points="35.129 49.481 33.768 49.122 33.765 49.83 35.129 49.481" fill="#d5d5d5"/><polygon points="35.252 15.492 33.891 15.133 33.888 15.841 35.252 15.492" fill="#d5d5d5"/><polygon points="32.766 41.993 31.405 41.634 31.402 42.342 32.766 41.993" fill="#d5d5d5"/><polygon points="32.834 22.963 31.473 22.604 31.471 23.312 32.834 22.963" fill="#d5d5d5"/><path d="M11.105,29.23l28.525.1a51.632,51.632,0,0,1,7.921.768c.421.093.96.209,1.572.338l1.912.4c1.474.3,3.105.634,4.546.926.453.09.887.177,1.292.26l1.166.234,1.6.319-2.769.534-1.294.25c-1.443.28-3.076.6-4.551.892-1.405.279-2.669.534-3.491.71a51.5,51.5,0,0,1-7.926.711l-28.525-.1a14.51,14.51,0,0,1-5.225-1.155C3.3,33.268,3.381,32.372,3.381,32.372s-.076-.9,2.49-2.026A14.532,14.532,0,0,1,11.105,29.23Z" fill="url(#o)"/><path d="M50.95,34.133l5.887-1.127,3.252,9.975a3.1,3.1,0,0,1-2.517.348C56.405,42.829,50.95,34.133,50.95,34.133Z" fill="#edeef2"/><polygon points="59.796 42.08 58.656 42.462 55.464 33.28 55.614 33.228 58.754 42.262 59.746 41.93 59.796 42.08" fill="#b3b3b3"/><path d="M60.164,22.172l-.325.975L57.71,29.516l-.837,2.506-.033.1-1.3-.258-4.583-.912.074-.117c.143-.221.479-.745.93-1.433,1.648-2.512,4.828-7.239,5.685-7.6A3.094,3.094,0,0,1,60.164,22.172Z" fill="#edeef2"/><polygon points="59.865 23.071 59.814 23.221 58.824 22.881 55.618 31.892 55.469 31.839 58.727 22.68 59.865 23.071" fill="#b3b3b3"/><path d="M13.668,35.052h.059a.172.172,0,0,1,.172.172v0a.171.171,0,0,1-.171.171h-.06a.171.171,0,0,1-.171-.171v0a.171.171,0,0,1,.171-.171Z" transform="translate(-21.583 48.771) rotate(-89.755)" fill="#1a1a1a"/><rect x="14.272" y="35.054" width="0.402" height="0.343" rx="0.171" transform="matrix(0.002, -1, 1, 0.002, -20.784, 49.623)" fill="#1a1a1a"/><rect x="15.046" y="35.057" width="0.402" height="0.343" rx="0.171" transform="translate(-20.047 50.325) rotate(-89.755)" fill="#1a1a1a"/><path d="M15.991,35.06h.06a.17.17,0,0,1,.17.17v0a.17.17,0,0,1-.17.17h-.06a.171.171,0,0,1-.171-.171v0a.171.171,0,0,1,.171-.171Z" transform="matrix(0.002, -1, 1, 0.002, -19.245, 51.177)" fill="#1a1a1a"/><rect x="16.594" y="35.063" width="0.402" height="0.342" rx="0.171" transform="translate(-18.514 51.871) rotate(-89.743)" fill="#1a1a1a"/><path d="M17.539,35.066h.06a.171.171,0,0,1,.171.171v0a.172.172,0,0,1-.172.172H17.54a.172.172,0,0,1-.172-.172v0a.171.171,0,0,1,.171-.171Z" transform="translate(-17.742 52.656) rotate(-89.755)" fill="#1a1a1a"/><path d="M18.314,35.068h.059a.171.171,0,0,1,.171.171v0a.17.17,0,0,1-.17.17h-.06a.171.171,0,0,1-.171-.171v0a.171.171,0,0,1,.171-.171Z" transform="translate(-16.935 53.508) rotate(-89.878)" fill="#1a1a1a"/><path d="M19.088,35.071h.06a.171.171,0,0,1,.171.171v0a.171.171,0,0,1-.171.171h-.058a.172.172,0,0,1-.172-.172v0A.171.171,0,0,1,19.088,35.071Z" transform="translate(-16.206 54.21) rotate(-89.755)" fill="#1a1a1a"/><path d="M19.862,35.074h.059a.172.172,0,0,1,.172.172v0a.171.171,0,0,1-.171.171h-.06a.171.171,0,0,1-.171-.171v0a.171.171,0,0,1,.171-.171Z" transform="matrix(0.002, -1, 1, 0.002, -15.396, 55.062)" fill="#1a1a1a"/><rect x="20.465" y="35.077" width="0.402" height="0.342" rx="0.171" transform="translate(-14.674 55.756) rotate(-89.743)" fill="#1a1a1a"/><path d="M21.41,35.08h.059a.172.172,0,0,1,.172.172v0a.171.171,0,0,1-.171.171h-.06a.171.171,0,0,1-.171-.171v0A.171.171,0,0,1,21.41,35.08Z" transform="translate(-13.906 56.533) rotate(-89.743)" fill="#1a1a1a"/><rect x="22.014" y="35.082" width="0.402" height="0.343" rx="0.171" transform="translate(-13.086 57.393) rotate(-89.878)" fill="#1a1a1a"/><rect x="22.788" y="35.085" width="0.402" height="0.343" rx="0.171" transform="translate(-12.365 58.095) rotate(-89.755)" fill="#1a1a1a"/><path d="M23.733,35.088h.059a.171.171,0,0,1,.171.171v0a.171.171,0,0,1-.171.171h-.059a.172.172,0,0,1-.172-.172v0a.171.171,0,0,1,.171-.171Z" transform="translate(-11.547 58.947) rotate(-89.878)" fill="#1a1a1a"/><rect x="24.336" y="35.091" width="0.402" height="0.343" rx="0.171" transform="translate(-10.829 59.649) rotate(-89.755)" fill="#1a1a1a"/><path d="M25.282,35.094h.059a.171.171,0,0,1,.171.171v0a.171.171,0,0,1-.171.171h-.059a.172.172,0,0,1-.172-.172v0a.171.171,0,0,1,.171-.171Z" transform="translate(-10.067 60.418) rotate(-89.743)" fill="#1a1a1a"/><rect x="25.885" y="35.096" width="0.402" height="0.342" rx="0.171" transform="translate(-9.293 61.202) rotate(-89.755)" fill="#1a1a1a"/><rect x="26.659" y="35.099" width="0.402" height="0.343" rx="0.171" transform="translate(-8.525 61.98) rotate(-89.755)" fill="#1a1a1a"/><path d="M27.6,35.1h.058a.172.172,0,0,1,.172.172v0a.171.171,0,0,1-.171.171H27.6a.171.171,0,0,1-.171-.171v0A.171.171,0,0,1,27.6,35.1Z" transform="translate(-7.698 62.832) rotate(-89.877)" fill="#1a1a1a"/><path d="M28.379,35.1h.06a.171.171,0,0,1,.171.171v0a.171.171,0,0,1-.171.171h-.059a.172.172,0,0,1-.172-.172v0a.171.171,0,0,1,.171-.171Z" transform="translate(-6.989 63.534) rotate(-89.755)" fill="#1a1a1a"/><path d="M29.153,35.108h.059a.171.171,0,0,1,.171.171v0a.171.171,0,0,1-.171.171h-.06a.171.171,0,0,1-.171-.171v0A.172.172,0,0,1,29.153,35.108Z" transform="translate(-6.221 64.31) rotate(-89.755)" fill="#1a1a1a"/><rect x="29.756" y="35.111" width="0.402" height="0.342" rx="0.171" transform="translate(-5.453 65.088) rotate(-89.755)" fill="#1a1a1a"/><rect x="30.53" y="35.113" width="0.402" height="0.343" rx="0.171" transform="translate(-4.685 65.864) rotate(-89.755)" fill="#1a1a1a"/><path d="M31.475,35.116h.06a.171.171,0,0,1,.171.171v0a.171.171,0,0,1-.171.171h-.058a.172.172,0,0,1-.172-.172v0A.171.171,0,0,1,31.475,35.116Z" transform="translate(-3.849 66.717) rotate(-89.878)" fill="#1a1a1a"/><rect x="32.079" y="35.119" width="0.402" height="0.343" rx="0.171" transform="translate(-3.149 67.418) rotate(-89.755)" fill="#1a1a1a"/><path d="M33.024,35.122h.06a.171.171,0,0,1,.171.171v0a.171.171,0,0,1-.171.171h-.059a.172.172,0,0,1-.172-.172v0a.171.171,0,0,1,.171-.171Z" transform="matrix(0.004, -1, 1, 0.004, -2.38, 68.196)" fill="#1a1a1a"/><rect x="33.627" y="35.124" width="0.402" height="0.342" rx="0.171" transform="translate(-1.619 68.965) rotate(-89.743)" fill="#1a1a1a"/><path d="M34.572,35.127h.06a.171.171,0,0,1,.171.171v0a.171.171,0,0,1-.171.171h-.058A.172.172,0,0,1,34.4,35.3v0a.171.171,0,0,1,.171-.171Z" transform="translate(-0.844 69.75) rotate(-89.755)" fill="#1a1a1a"/><path d="M35.347,35.13h.059a.171.171,0,0,1,.171.171v0a.171.171,0,0,1-.171.171h-.059a.171.171,0,0,1-.171-.171v0a.172.172,0,0,1,.172-.172Z" transform="translate(-0.001 70.602) rotate(-89.877)" fill="#1a1a1a"/><path d="M36.12,35.133h.06a.171.171,0,0,1,.171.171v0a.171.171,0,0,1-.171.171h-.058a.172.172,0,0,1-.172-.172v0A.171.171,0,0,1,36.12,35.133Z" transform="matrix(0.004, -1, 1, 0.004, 0.692, 71.304)" fill="#1a1a1a"/><path d="M36.9,35.136h.058a.172.172,0,0,1,.172.172v0a.171.171,0,0,1-.171.171H36.9a.171.171,0,0,1-.171-.171v0A.171.171,0,0,1,36.9,35.136Z" transform="translate(1.539 72.156) rotate(-89.877)" fill="#1a1a1a"/><rect x="37.498" y="35.139" width="0.402" height="0.342" rx="0.171" transform="translate(2.229 72.858) rotate(-89.755)" fill="#1a1a1a"/><rect x="38.272" y="35.141" width="0.402" height="0.343" rx="0.171" transform="translate(2.988 73.627) rotate(-89.743)" fill="#1a1a1a"/><rect x="39.047" y="35.144" width="0.402" height="0.343" rx="0.171" transform="translate(3.848 74.487) rotate(-89.878)" fill="#1a1a1a"/><rect x="39.821" y="35.147" width="0.402" height="0.343" rx="0.171" transform="translate(4.533 75.188) rotate(-89.755)" fill="#1a1a1a"/><rect x="13.518" y="29.423" width="0.402" height="0.343" rx="0.171" transform="translate(-15.905 43.25) rotate(-89.877)" fill="#1a1a1a"/><rect x="14.292" y="29.426" width="0.401" height="0.343" rx="0.171" transform="translate(-15.166 43.964) rotate(-89.755)" fill="#1a1a1a"/><rect x="15.066" y="29.429" width="0.402" height="0.343" rx="0.171" transform="translate(-14.366 44.804) rotate(-89.877)" fill="#1a1a1a"/><rect x="15.841" y="29.432" width="0.401" height="0.342" rx="0.171" transform="translate(-13.633 45.511) rotate(-89.743)" fill="#1a1a1a"/><path d="M16.786,29.434h.059a.172.172,0,0,1,.172.172v0a.171.171,0,0,1-.171.171h-.059a.171.171,0,0,1-.171-.171v0a.171.171,0,0,1,.171-.171Z" transform="matrix(0.004, -1, 1, 0.004, -12.865, 46.288)" fill="#1a1a1a"/><rect x="17.389" y="29.437" width="0.401" height="0.343" rx="0.171" transform="translate(-12.056 47.135) rotate(-89.878)" fill="#1a1a1a"/><rect x="18.163" y="29.44" width="0.402" height="0.343" rx="0.171" transform="translate(-11.326 47.848) rotate(-89.755)" fill="#1a1a1a"/><path d="M19.109,29.443h.059a.171.171,0,0,1,.171.171v0a.172.172,0,0,1-.172.172h-.059a.171.171,0,0,1-.171-.171v0A.171.171,0,0,1,19.109,29.443Z" transform="matrix(0.002, -1, 1, 0.002, -10.517, 48.689)" fill="#1a1a1a"/><rect x="19.712" y="29.446" width="0.402" height="0.342" rx="0.171" transform="translate(-9.789 49.402) rotate(-89.755)" fill="#1a1a1a"/><path d="M20.657,29.448h.059a.171.171,0,0,1,.171.171v0a.172.172,0,0,1-.172.172h-.059a.171.171,0,0,1-.171-.171v0A.171.171,0,0,1,20.657,29.448Z" transform="translate(-9.026 50.173) rotate(-89.743)" fill="#1a1a1a"/><rect x="21.26" y="29.451" width="0.402" height="0.343" rx="0.171" transform="matrix(0.002, -1, 1, 0.002, -8.208, 51.02)" fill="#1a1a1a"/><rect x="22.034" y="29.454" width="0.401" height="0.343" rx="0.171" transform="matrix(0.004, -1, 1, 0.004, -7.485, 51.734)" fill="#1a1a1a"/><rect x="22.808" y="29.457" width="0.402" height="0.343" rx="0.171" transform="translate(-6.668 52.574) rotate(-89.877)" fill="#1a1a1a"/><rect x="23.583" y="29.46" width="0.401" height="0.342" rx="0.171" transform="translate(-5.949 53.288) rotate(-89.755)" fill="#1a1a1a"/><path d="M24.528,29.462h.059a.171.171,0,0,1,.171.171v0a.172.172,0,0,1-.172.172h-.059a.172.172,0,0,1-.172-.172v0a.171.171,0,0,1,.171-.171Z" transform="translate(-5.181 54.064) rotate(-89.755)" fill="#1a1a1a"/><rect x="25.131" y="29.465" width="0.401" height="0.343" rx="0.171" transform="translate(-4.364 54.899) rotate(-89.865)" fill="#1a1a1a"/><rect x="25.905" y="29.468" width="0.402" height="0.343" rx="0.171" transform="translate(-3.645 55.618) rotate(-89.755)" fill="#1a1a1a"/><rect x="26.68" y="29.471" width="0.401" height="0.343" rx="0.171" transform="translate(-2.819 56.459) rotate(-89.878)" fill="#1a1a1a"/><rect x="27.454" y="29.474" width="0.402" height="0.343" rx="0.171" transform="translate(-2.109 57.172) rotate(-89.755)" fill="#1a1a1a"/><rect x="28.228" y="29.476" width="0.401" height="0.343" rx="0.171" transform="translate(-1.34 57.95) rotate(-89.755)" fill="#1a1a1a"/><rect x="29.002" y="29.479" width="0.402" height="0.342" rx="0.171" transform="matrix(0.004, -1, 1, 0.004, -0.579, 58.72)" fill="#1a1a1a"/><path d="M29.948,29.482h.059a.171.171,0,0,1,.171.171v0a.171.171,0,0,1-.171.171h-.059a.171.171,0,0,1-.171-.171v0a.172.172,0,0,1,.172-.172Z" transform="translate(0.196 59.504) rotate(-89.755)" fill="#1a1a1a"/><rect x="30.551" y="29.485" width="0.402" height="0.343" rx="0.171" transform="translate(1.03 60.344) rotate(-89.877)" fill="#1a1a1a"/><rect x="31.325" y="29.488" width="0.401" height="0.343" rx="0.171" transform="translate(1.732 61.058) rotate(-89.755)" fill="#1a1a1a"/><rect x="32.099" y="29.49" width="0.402" height="0.343" rx="0.171" transform="translate(2.5 61.834) rotate(-89.755)" fill="#1a1a1a"/><rect x="32.873" y="29.493" width="0.401" height="0.342" rx="0.171" transform="translate(3.269 62.612) rotate(-89.755)" fill="#1a1a1a"/><path d="M33.819,29.5h.059a.171.171,0,0,1,.171.171v0a.171.171,0,0,1-.171.171h-.059a.171.171,0,0,1-.171-.171v0a.172.172,0,0,1,.172-.172Z" transform="translate(4.029 63.382) rotate(-89.743)" fill="#1a1a1a"/><rect x="34.422" y="29.499" width="0.401" height="0.343" rx="0.171" transform="translate(4.878 64.229) rotate(-89.878)" fill="#1a1a1a"/><path d="M35.367,29.5h.059a.171.171,0,0,1,.171.171v0a.172.172,0,0,1-.172.172h-.059a.171.171,0,0,1-.171-.171v0A.171.171,0,0,1,35.367,29.5Z" transform="translate(5.573 64.942) rotate(-89.755)" fill="#1a1a1a"/><path d="M36.142,29.5H36.2a.171.171,0,0,1,.171.171v0a.171.171,0,0,1-.171.171h-.059a.171.171,0,0,1-.171-.171v0A.172.172,0,0,1,36.142,29.5Z" transform="translate(6.341 65.72) rotate(-89.755)" fill="#1a1a1a"/><rect x="36.744" y="29.507" width="0.402" height="0.342" rx="0.171" transform="translate(7.109 66.496) rotate(-89.755)" fill="#1a1a1a"/><path d="M37.69,29.51h.059a.171.171,0,0,1,.171.171v0a.171.171,0,0,1-.171.171H37.69a.171.171,0,0,1-.171-.171v0A.172.172,0,0,1,37.69,29.51Z" transform="translate(7.877 67.274) rotate(-89.755)" fill="#1a1a1a"/><path d="M38.464,29.513h.059a.171.171,0,0,1,.171.171v0a.171.171,0,0,1-.171.171h-.06a.171.171,0,0,1-.171-.171v0a.172.172,0,0,1,.172-.172Z" transform="translate(8.727 68.114) rotate(-89.877)" fill="#1a1a1a"/><rect x="39.067" y="29.516" width="0.401" height="0.343" rx="0.171" transform="translate(9.413 68.828) rotate(-89.755)" fill="#1a1a1a"/><rect x="39.841" y="29.518" width="0.402" height="0.343" rx="0.171" transform="translate(10.267 69.668) rotate(-89.877)" fill="#1a1a1a"/><rect x="12.012" y="32.081" width="0.646" height="0.646" rx="0.323" transform="translate(-20.11 44.63) rotate(-89.809)" fill="url(#p)"/><rect x="18.747" y="32.105" width="0.646" height="0.646" rx="0.323" transform="matrix(0.003, -1, 1, 0.003, -13.424, 51.386)" fill="url(#q)"/><rect x="25.482" y="32.129" width="0.646" height="0.646" rx="0.323" transform="translate(-6.734 58.149) rotate(-89.809)" fill="url(#r)"/><path d="M32.539,32.154h0a.323.323,0,0,1,.323.323v0a.323.323,0,0,1-.323.323h0a.323.323,0,0,1-.323-.323v0A.322.322,0,0,1,32.539,32.154Z" transform="translate(-0.045 64.908) rotate(-89.809)" fill="url(#s)"/><path d="M39.6,32.394v.217a.214.214,0,0,1-.215.214h-.217a.216.216,0,0,1-.214-.215v-.218a.214.214,0,0,1,.215-.213h.218A.213.213,0,0,1,39.6,32.394Z" fill="url(#t)"/><path d="M12.949,35.011l0,.564h-.079l0-.564a.4.4,0,0,0-.395-.4l-.568,0a.4.4,0,0,0-.4.4l0,.564h-.079v-.564a.477.477,0,0,1,.478-.474l.568,0A.475.475,0,0,1,12.949,35.011Z" fill="#b3b3b3"/><path d="M12.97,29.236l0,.565a.475.475,0,0,1-.477.473l-.568,0a.477.477,0,0,1-.474-.477l0-.564h.08l0,.564a.4.4,0,0,0,.394.4l.568,0a.4.4,0,0,0,.4-.395l0-.564Z" fill="#b3b3b3"/><path d="M8.99,34.777s.8.175.477-.434A5.173,5.173,0,0,1,8.3,33.405l-.716.535A3.8,3.8,0,0,0,8.99,34.777Z" fill="#2b3166"/><path d="M6.577,32.431a3.581,3.581,0,0,0,.951,1.459l.716-.535a1.47,1.47,0,0,1-.426-.919Z" fill="#2b3166"/><path d="M9.007,30.006s.806-.169.474.437a5.2,5.2,0,0,0-1.172.93l-.712-.54A3.81,3.81,0,0,1,9.007,30.006Z" fill="#2b3166"/><path d="M6.577,32.335a3.587,3.587,0,0,1,.962-1.453l.712.541a1.474,1.474,0,0,0-.433.916Z" fill="#2b3166"/><g mask="url(#u)"><path d="M51.965,29.4l4.425.088,1.32.025-.837,2.506,1.166.234-.366.4-11.109-.124,2.559-2.089,1.912.4C51.178,30.615,51.514,30.091,51.965,29.4Z" opacity="0.1" fill="url(#w)" style="mix-blend-mode:multiply"/></g><path d="M46.564,32.528s9.23.935,15.055.054C55.8,31.659,46.564,32.528,46.564,32.528Z" fill="url(#x)"/><g mask="url(#y)"><path d="M26.542,21.011l5.646.02-.293.823-.15.426s-1.23,3.957-.023,6.339c0,0,.3.69.794.692l-12.639-.046a.725.725,0,0,1-.122-.008h.275c.585-.058,2.034-.5,3.646-3.231C24.213,25.118,25.267,23.264,26.542,21.011Z" opacity="0.24" fill="url(#aa)"/></g></g></svg>